<svg width="2285" height="2958" viewBox="0 0 2285 2958" fill="none" xmlns="http://www.w3.org/2000/svg">
<rect width="2285" height="2958" fill="#F5F5F5"/>
<rect x="1949" y="8" width="134" height="2923" fill="#522504"/>
<rect x="1340" y="8" width="168" height="2665" fill="#522504"/>
<rect x="734" y="396" width="115" height="2277" fill="#522504"/>
<rect x="902" y="2252" width="455" height="73" fill="#522504"/>
<rect x="902" y="2549" width="455" height="124" fill="#522504"/>
<rect x="1298" y="2325" width="59" height="224" fill="#522504"/>
<rect x="902" y="2325" width="38" height="224" fill="#522504"/>
<rect x="902" y="1685" width="455" height="121" fill="#522504"/>
<rect x="842" y="1015" width="515" height="129" fill="#522504"/>
<rect x="826" y="151" width="76" height="864" fill="#522504"/>
<rect x="902" y="662" width="455" height="114" fill="#522504"/>
<rect x="902" y="151" width="455" height="71" fill="#522504"/>
<rect x="1495" y="345" width="464" height="130" fill="#522504"/>
<rect x="1495" y="760" width="473" height="131" fill="#522504"/>
<rect x="1495" y="1743" width="473" height="126" fill="#522504"/>
<rect x="1495" y="2153" width="473" height="129" fill="#522504"/>
<rect x="1495" y="2558" width="473" height="51" fill="#522504"/>
<rect x="1506" y="2840" width="453" height="91" fill="#522504"/>
<rect x="205" y="479" width="89" height="284" fill="#522504"/>
<rect x="205" y="887" width="94" height="284" fill="#522504"/>
<rect x="205" y="1297" width="89" height="433" fill="#522504"/>
<rect x="205" y="1860" width="89" height="284" fill="#522504"/>
<rect x="1495" y="1171" width="473" height="126" fill="#522504"/>
<rect x="1495" y="8" width="473" height="50" fill="#522504"/>
<rect x="205" y="1730" width="529" height="134" fill="#522504"/>
<rect x="383" y="2549" width="351" height="134" fill="#522504"/>
<rect x="383" y="2683" width="265" height="134" fill="#522504"/>
<rect x="205" y="2136" width="540" height="134" fill="#522504"/>
<rect x="205" y="1163" width="554" height="134" fill="#522504"/>
<rect x="205" y="763" width="540" height="128" fill="#522504"/>
<rect x="205" y="396" width="529" height="83" fill="#522504"/>
<rect x="4" y="2427" width="287" height="161" fill="#522504"/>
<rect x="205" y="2270" width="86" height="195" fill="#522504"/>
<rect x="835" y="1685" width="67" height="988" fill="#522504"/>
<rect x="4" y="2821" width="1125" height="66" fill="#522504"/>
<rect x="4" y="2582" width="23" height="235" fill="#522504"/>
<rect x="4" y="396" width="212" height="83" fill="#522504"/>
<rect x="826" y="8" width="531" height="143" fill="#522504"/>
<rect x="2042" y="394" width="236" height="189" fill="#522504"/>
<rect x="291" y="2549" width="103" height="39" fill="#522504"/>
<rect x="2037" y="2307" width="230" height="624" fill="#522504"/>
</svg>
